<?xml version="1.0" encoding="UTF-8" standalone="no"?>
<svg
   xmlns:dc="http://purl.org/dc/elements/1.1/"
   xmlns:cc="http://creativecommons.org/ns#"
   xmlns:rdf="http://www.w3.org/1999/02/22-rdf-syntax-ns#"
   xmlns:svg="http://www.w3.org/2000/svg"
   xmlns="http://www.w3.org/2000/svg"
   xmlns:sodipodi="http://sodipodi.sourceforge.net/DTD/sodipodi-0.dtd"
   xmlns:inkscape="http://www.inkscape.org/namespaces/inkscape"
   width="101.2mm"
   height="39.599998mm"
   viewBox="0 0 101.19999 39.599998"
   version="1.1"
   id="svg8"
   sodipodi:docname="book.svg"
   inkscape:version="1.0.2-2 (e86c870879, 2021-01-15)">
  <sodipodi:namedview
     pagecolor="#ffffff"
     bordercolor="#666666"
     borderopacity="1"
     objecttolerance="10"
     gridtolerance="10"
     guidetolerance="10"
     inkscape:pageopacity="0"
     inkscape:pageshadow="2"
     inkscape:window-width="1920"
     inkscape:window-height="1017"
     id="namedview16"
     showgrid="false"
     inkscape:zoom="2.5063258"
     inkscape:cx="255.27383"
     inkscape:cy="95.321807"
     inkscape:window-x="1912"
     inkscape:window-y="-8"
     inkscape:window-maximized="1"
     inkscape:current-layer="svg8" />
  <defs
     id="defs2">
    <rect
       x="45.576538"
       y="51.02763"
       width="101.02789"
       height="39.555889"
       id="rect54" />
  </defs>
  <metadata
     id="metadata5">
    <rdf:RDF>
      <cc:Work
         rdf:about="">
        <dc:format>image/svg+xml</dc:format>
        <dc:type
           rdf:resource="http://purl.org/dc/dcmitype/StillImage" />
        <dc:title></dc:title>
      </cc:Work>
    </rdf:RDF>
  </metadata>
  <g
     id="layer1"
     transform="translate(-4.8560462,-3.1669867)">
    <rect
       style="fill:#800000;stroke-width:0.264583"
       id="rect50"
       width="101.02789"
       height="39.555889"
       x="4.9515581"
       y="3.1863854"
       ry="9.6217031" />
    <g
       aria-label="Book now"
       transform="translate(-41.145237,-43.180083)"
       id="text52"
       style="font-style:normal;font-weight:normal;font-size:25.4px;line-height:1.25;font-family:sans-serif;white-space:pre;shape-inside:url(#rect54);fill:#000000;fill-opacity:1;stroke:none">
      <path
         d="m 51.236768,57.66121 h 3.819922 q 3.33623,0 4.799707,1.314649 1.463477,1.302246 1.463477,3.323828 0,2.182812 -2.133204,3.509863 2.418457,0.95498 2.418457,3.633887 0,2.145605 -1.500683,3.460254 -1.500684,1.314648 -3.956348,1.314648 h -4.911328 z m 3.75791,3.175 v 3.571875 q 2.517676,-0.06201 2.517676,-1.74873 0,-1.00459 -0.607715,-1.401465 -0.595312,-0.396875 -1.909961,-0.42168 z m 0,6.573242 v 3.584278 q 1.42627,-0.02481 2.133203,-0.434082 0.719336,-0.42168 0.719336,-1.376661 0,-1.773535 -2.54248,-1.773535 z"
         style="font-style:normal;font-variant:normal;font-weight:normal;font-stretch:normal;font-size:25.4px;font-family:'Tw Cen MT Condensed Extra Bold';-inkscape-font-specification:'Tw Cen MT Condensed Extra Bold, ';text-align:center;text-anchor:middle;fill:#ffffff"
         id="path79" />
      <path
         d="m 68.079151,62.411308 q 2.468066,0 3.75791,1.649512 1.289844,1.637109 1.289844,4.564062 0,2.864941 -1.339453,4.440039 -1.339454,1.562695 -3.708301,1.562695 -2.269629,0 -3.609082,-1.599902 -1.327051,-1.599902 -1.327051,-4.402832 0,-2.926953 1.265039,-4.564062 1.277442,-1.649512 3.671094,-1.649512 z m 0.02481,8.991699 q 0.706933,0 1.054199,-0.657324 0.359668,-0.657324 0.359668,-2.244824 0,-1.575098 -0.347266,-2.207618 -0.347266,-0.632519 -1.041797,-0.632519 -0.682129,0 -1.041797,0.620117 -0.359668,0.607715 -0.359668,2.244824 0,2.877344 1.376661,2.877344 z"
         style="font-style:normal;font-variant:normal;font-weight:normal;font-stretch:normal;font-size:25.4px;font-family:'Tw Cen MT Condensed Extra Bold';-inkscape-font-specification:'Tw Cen MT Condensed Extra Bold, ';text-align:center;text-anchor:middle;fill:#ffffff"
         id="path81" />
      <path
         d="m 79.538916,62.411308 q 2.468067,0 3.75791,1.649512 1.289844,1.637109 1.289844,4.564062 0,2.864941 -1.339453,4.440039 -1.339453,1.562695 -3.708301,1.562695 -2.269629,0 -3.609082,-1.599902 -1.32705,-1.599902 -1.32705,-4.402832 0,-2.926953 1.265039,-4.564062 1.277441,-1.649512 3.671093,-1.649512 z m 0.02481,8.991699 q 0.706934,0 1.054199,-0.657324 0.359668,-0.657324 0.359668,-2.244824 0,-1.575098 -0.347266,-2.207618 -0.347265,-0.632519 -1.041796,-0.632519 -0.682129,0 -1.041797,0.620117 -0.359668,0.607715 -0.359668,2.244824 0,2.877344 1.37666,2.877344 z"
         style="font-style:normal;font-variant:normal;font-weight:normal;font-stretch:normal;font-size:25.4px;font-family:'Tw Cen MT Condensed Extra Bold';-inkscape-font-specification:'Tw Cen MT Condensed Extra Bold, ';text-align:center;text-anchor:middle;fill:#ffffff"
         id="path83" />
      <path
         d="m 86.70747,56.743437 h 3.596679 v 10.132715 h 0.06201 l 2.455664,-4.067969 h 4.316016 l -3.658692,5.109765 3.733106,6.300391 H 93.05747 l -2.691309,-5.568652 h -0.06201 v 5.568652 H 86.70747 Z"
         style="font-style:normal;font-variant:normal;font-weight:normal;font-stretch:normal;font-size:25.4px;font-family:'Tw Cen MT Condensed Extra Bold';-inkscape-font-specification:'Tw Cen MT Condensed Extra Bold, ';text-align:center;text-anchor:middle;fill:#ffffff"
         id="path85" />
      <path
         d="m 108.69683,62.808183 v 1.550293 h 0.062 q 1.26504,-1.922363 3.08818,-1.922363 1.19063,0 1.88516,0.79375 0.70693,0.79375 0.70693,2.145605 v 8.842871 h -3.60908 V 67.18621 q 0,-0.58291 -0.27285,-0.95498 -0.27285,-0.372071 -0.70694,-0.372071 -1.15341,0 -1.15341,1.451075 v 6.908105 h -3.59668 V 62.808183 Z"
         style="font-style:normal;font-variant:normal;font-weight:normal;font-stretch:normal;font-size:25.4px;font-family:'Tw Cen MT Condensed Extra Bold';-inkscape-font-specification:'Tw Cen MT Condensed Extra Bold, ';text-align:center;text-anchor:middle;fill:#ffffff"
         id="path87" />
      <path
         d="m 121.38442,62.411308 q 2.46807,0 3.75791,1.649512 1.28985,1.637109 1.28985,4.564062 0,2.864941 -1.33946,4.440039 -1.33945,1.562695 -3.7083,1.562695 -2.26963,0 -3.60908,-1.599902 -1.32705,-1.599902 -1.32705,-4.402832 0,-2.926953 1.26504,-4.564062 1.27744,-1.649512 3.67109,-1.649512 z m 0.0248,8.991699 q 0.70693,0 1.0542,-0.657324 0.35966,-0.657324 0.35966,-2.244824 0,-1.575098 -0.34726,-2.207618 -0.34727,-0.632519 -1.0418,-0.632519 -0.68213,0 -1.04179,0.620117 -0.35967,0.607715 -0.35967,2.244824 0,2.877344 1.37666,2.877344 z"
         style="font-style:normal;font-variant:normal;font-weight:normal;font-stretch:normal;font-size:25.4px;font-family:'Tw Cen MT Condensed Extra Bold';-inkscape-font-specification:'Tw Cen MT Condensed Extra Bold, ';text-align:center;text-anchor:middle;fill:#ffffff"
         id="path89" />
      <path
         d="m 126.96547,62.808183 h 3.55948 q 1.24023,5.407422 1.40146,6.412011 h 0.0496 l 1.21543,-6.412011 h 3.05098 l 1.21543,6.30039 h 0.0496 q 0.29765,-1.438671 0.40927,-1.922363 l 1.0418,-4.378027 h 3.55947 l -3.53466,11.410156 h -2.71612 q -1.38906,-5.109766 -1.55029,-6.151562 h -0.0496 q -0.11162,0.868164 -1.50068,6.151562 h -2.69131 z"
         style="font-style:normal;font-variant:normal;font-weight:normal;font-stretch:normal;font-size:25.4px;font-family:'Tw Cen MT Condensed Extra Bold';-inkscape-font-specification:'Tw Cen MT Condensed Extra Bold, ';text-align:center;text-anchor:middle;fill:#ffffff"
         id="path91" />
    </g>
  </g>
</svg>
