<?xml version="1.0" encoding="UTF-8" standalone="no"?>
<svg
   xmlns:dc="http://purl.org/dc/elements/1.1/"
   xmlns:cc="http://creativecommons.org/ns#"
   xmlns:rdf="http://www.w3.org/1999/02/22-rdf-syntax-ns#"
   xmlns:svg="http://www.w3.org/2000/svg"
   xmlns="http://www.w3.org/2000/svg"
   xmlns:sodipodi="http://sodipodi.sourceforge.net/DTD/sodipodi-0.dtd"
   xmlns:inkscape="http://www.inkscape.org/namespaces/inkscape"
   width="101.2mm"
   height="39.799999mm"
   viewBox="0 0 101.19999 39.799998"
   version="1.1"
   id="svg8"
   sodipodi:docname="donate.svg"
   inkscape:version="1.0.2-2 (e86c870879, 2021-01-15)">
  <defs
     id="defs2">
    <rect
       x="45.576538"
       y="51.02763"
       width="101.02789"
       height="39.555889"
       id="rect54" />
  </defs>
  <sodipodi:namedview
     id="base"
     pagecolor="#ffffff"
     bordercolor="#666666"
     borderopacity="1.0"
     inkscape:pageopacity="0.0"
     inkscape:pageshadow="2"
     inkscape:zoom="3.959798"
     inkscape:cx="331.67027"
     inkscape:cy="113.57515"
     inkscape:document-units="mm"
     inkscape:current-layer="text52"
     inkscape:document-rotation="0"
     showgrid="false"
     showguides="true"
     inkscape:guide-bbox="true"
     inkscape:window-width="1920"
     inkscape:window-height="1017"
     inkscape:window-x="1912"
     inkscape:window-y="-8"
     inkscape:window-maximized="1" />
  <metadata
     id="metadata5">
    <rdf:RDF>
      <cc:Work
         rdf:about="">
        <dc:format>image/svg+xml</dc:format>
        <dc:type
           rdf:resource="http://purl.org/dc/dcmitype/StillImage" />
        <dc:title></dc:title>
      </cc:Work>
    </rdf:RDF>
  </metadata>
  <g
     inkscape:label="Layer 1"
     inkscape:groupmode="layer"
     id="layer1">
    <rect
       style="fill:#800000;stroke-width:0.264583"
       id="rect50"
       width="101.02789"
       height="39.555889"
       x="0.1407066"
       y="0.24642058"
       ry="9.6217031" />
    <g
       aria-label="Donate"
       transform="translate(-41.145237,-43.180083)"
       id="text52"
       style="font-style:normal;font-weight:normal;font-size:25.4px;line-height:1.25;font-family:sans-serif;white-space:pre;shape-inside:url(#rect54);fill:#000000;fill-opacity:1;stroke:none">
      <path
         d="m 59.522791,54.721245 h 3.509863 q 3.646289,0 5.543848,2.083594 1.897558,2.071191 1.897558,6.064746 0,3.026172 -0.942578,4.886523 -0.930175,1.860352 -2.616894,2.691309 -1.674317,0.830957 -3.708301,0.830957 h -3.683496 z m 3.75791,3.522266 v 9.500195 q 1.711524,-0.148828 2.418457,-1.203027 0.706934,-1.066602 0.706934,-3.497461 0,-1.438672 -0.248047,-2.43086 -0.248047,-1.004589 -0.744141,-1.53789 -0.483691,-0.545703 -0.95498,-0.669727 -0.458887,-0.124023 -1.178223,-0.16123 z"
         style="font-style:normal;font-variant:normal;font-weight:normal;font-stretch:normal;font-size:25.4px;font-family:'Tw Cen MT Condensed Extra Bold';-inkscape-font-specification:'Tw Cen MT Condensed Extra Bold, ';text-align:center;text-anchor:middle;fill:#ffffff"
         id="path66" />
      <path
         d="m 76.898474,59.471343 q 2.468066,0 3.75791,1.649512 1.289844,1.637109 1.289844,4.564062 0,2.864941 -1.339453,4.440039 -1.339453,1.562695 -3.708301,1.562695 -2.269629,0 -3.609082,-1.599902 -1.327051,-1.599902 -1.327051,-4.402832 0,-2.926953 1.265039,-4.564062 1.277442,-1.649512 3.671094,-1.649512 z m 0.02481,8.991699 q 0.706933,0 1.054199,-0.657324 0.359668,-0.657324 0.359668,-2.244824 0,-1.575098 -0.347266,-2.207618 -0.347265,-0.632519 -1.041797,-0.632519 -0.682129,0 -1.041796,0.620117 -0.359668,0.607715 -0.359668,2.244824 0,2.877344 1.37666,2.877344 z"
         style="font-style:normal;font-variant:normal;font-weight:normal;font-stretch:normal;font-size:25.4px;font-family:'Tw Cen MT Condensed Extra Bold';-inkscape-font-specification:'Tw Cen MT Condensed Extra Bold, ';text-align:center;text-anchor:middle;fill:#ffffff"
         id="path68" />
      <path
         d="m 87.663708,59.868218 v 1.550293 h 0.06201 q 1.265039,-1.922363 3.088183,-1.922363 1.190625,0 1.885157,0.79375 0.706933,0.79375 0.706933,2.145605 v 8.842871 h -3.60908 v -7.032129 q 0,-0.58291 -0.272851,-0.95498 -0.272852,-0.372071 -0.706934,-0.372071 -1.153418,0 -1.153418,1.451075 v 6.908105 H 84.067029 V 59.868218 Z"
         style="font-style:normal;font-variant:normal;font-weight:normal;font-stretch:normal;font-size:25.4px;font-family:'Tw Cen MT Condensed Extra Bold';-inkscape-font-specification:'Tw Cen MT Condensed Extra Bold, ';text-align:center;text-anchor:middle;fill:#ffffff"
         id="path70" />
      <path
         d="M 101.74037,71.278374 V 69.77769 h -0.0496 q -0.65732,0.967383 -1.27744,1.42627 -0.607722,0.458887 -1.438672,0.458887 -1.62471,0 -2.59209,-1.661914 -0.96739,-1.661914 -0.96739,-4.514454 0,-2.740917 0.97979,-4.365624 0.97978,-1.624707 2.57969,-1.624707 0.85576,0 1.451072,0.434082 0.59531,0.421679 1.24023,1.364257 h 0.0496 v -1.426269 h 3.60909 v 11.410156 z m 0,-5.76709 q 0,-2.840137 -1.38906,-2.840137 -1.401472,0 -1.401472,2.840137 0,2.951758 1.451082,2.951758 1.33945,0 1.33945,-2.951758 z"
         style="font-style:normal;font-variant:normal;font-weight:normal;font-stretch:normal;font-size:25.4px;font-family:'Tw Cen MT Condensed Extra Bold';-inkscape-font-specification:'Tw Cen MT Condensed Extra Bold, ';text-align:center;text-anchor:middle;fill:#ffffff"
         id="path72" />
      <path
         d="m 108.52445,56.829644 h 3.60908 v 3.038574 h 1.40147 v 3.001367 h -1.42627 v 8.408789 h -3.58428 V 62.84478 h -1.36426 v -2.976562 h 1.36426 z"
         style="font-style:normal;font-variant:normal;font-weight:normal;font-stretch:normal;font-size:25.4px;font-family:'Tw Cen MT Condensed Extra Bold';-inkscape-font-specification:'Tw Cen MT Condensed Extra Bold, ';text-align:center;text-anchor:middle;fill:#ffffff"
         id="path74" />
      <path
         d="m 120.72836,67.793315 h 3.03857 q -0.86816,3.844727 -4.34082,3.844727 -2.17041,0 -3.43545,-1.649512 -1.26503,-1.649511 -1.26503,-4.55166 0,-2.703711 1.26503,-4.328418 1.26504,-1.637109 3.36104,-1.637109 1.26504,0 2.43086,0.79375 1.16582,0.781347 1.69912,2.083594 0.5333,1.302246 0.59531,4.105175 h -6.01513 q 0.0744,2.542481 1.41386,2.542481 0.45889,0 0.81856,-0.334864 0.35967,-0.334863 0.43408,-0.868164 z m -2.6169,-3.299023 h 2.6169 q -0.0372,-1.203027 -0.33486,-1.773535 -0.29766,-0.58291 -0.94258,-0.58291 -0.71934,0 -1.0294,0.558105 -0.31006,0.558106 -0.31006,1.79834 z"
         style="font-style:normal;font-variant:normal;font-weight:normal;font-stretch:normal;font-size:25.4px;font-family:'Tw Cen MT Condensed Extra Bold';-inkscape-font-specification:'Tw Cen MT Condensed Extra Bold, ';text-align:center;text-anchor:middle;fill:#ffffff"
         id="path76" />
    </g>
  </g>
</svg>
