<?xml version="1.0" encoding="UTF-8" standalone="no"?>
<svg
   xmlns:dc="http://purl.org/dc/elements/1.1/"
   xmlns:cc="http://creativecommons.org/ns#"
   xmlns:rdf="http://www.w3.org/1999/02/22-rdf-syntax-ns#"
   xmlns:svg="http://www.w3.org/2000/svg"
   xmlns="http://www.w3.org/2000/svg"
   xmlns:xlink="http://www.w3.org/1999/xlink"
   xmlns:sodipodi="http://sodipodi.sourceforge.net/DTD/sodipodi-0.dtd"
   xmlns:inkscape="http://www.inkscape.org/namespaces/inkscape"
   viewBox="0 0 381 369.67596"
   version="1.1"
   id="svg61"
   sodipodi:docname="kidsOwl.svg"
   width="381"
   height="369.67596"
   inkscape:version="1.0.2-2 (e86c870879, 2021-01-15)">
  <metadata
     id="metadata65">
    <rdf:RDF>
      <cc:Work
         rdf:about="">
        <dc:format>image/svg+xml</dc:format>
        <dc:type
           rdf:resource="http://purl.org/dc/dcmitype/StillImage" />
        <dc:title></dc:title>
      </cc:Work>
    </rdf:RDF>
  </metadata>
  <sodipodi:namedview
     pagecolor="#ffffff"
     bordercolor="#666666"
     borderopacity="1"
     objecttolerance="10"
     gridtolerance="10"
     guidetolerance="10"
     inkscape:pageopacity="0"
     inkscape:pageshadow="2"
     inkscape:window-width="1920"
     inkscape:window-height="1017"
     id="namedview63"
     showgrid="false"
     inkscape:zoom="1.6258584"
     inkscape:cx="189.68337"
     inkscape:cy="196.75845"
     inkscape:window-x="1912"
     inkscape:window-y="-8"
     inkscape:window-maximized="1"
     inkscape:current-layer="svg61" />
  <defs
     id="defs9">
    <linearGradient
       id="b">
      <stop
         stop-color="#ffb142"
         offset="0"
         id="stop2" />
      <stop
         stop-color="#c87600"
         offset="1"
         id="stop4" />
    </linearGradient>
    <linearGradient
       id="c"
       x1="212.52071"
       x2="223.00612"
       xlink:href="#b"
       gradientTransform="matrix(0.917562,0,0,1.0898446,-7.5736666,13.917213)"
       y1="114.26816"
       y2="114.26816"
       gradientUnits="userSpaceOnUse" />
    <linearGradient
       id="a"
       x2="279.18069"
       y1="266.07806"
       y2="278.05573"
       xlink:href="#b"
       gradientTransform="matrix(0.80079192,0,0,1.2487638,-7.5736666,13.917213)"
       x1="279.18069"
       gradientUnits="userSpaceOnUse" />
    <linearGradient
       inkscape:collect="always"
       xlink:href="#b"
       id="linearGradient67"
       y1="266.07806"
       x2="204.87926"
       y2="278.05573"
       gradientTransform="matrix(0.80079192,0,0,1.2487638,-7.5736666,13.917213)"
       x1="204.87926"
       gradientUnits="userSpaceOnUse" />
    <linearGradient
       inkscape:collect="always"
       xlink:href="#b"
       id="linearGradient69"
       y1="266.07806"
       x2="161.79691"
       y2="278.05573"
       gradientTransform="matrix(0.80079192,0,0,1.2487638,-7.5736666,13.917213)"
       x1="161.79691"
       gradientUnits="userSpaceOnUse" />
    <linearGradient
       inkscape:collect="always"
       xlink:href="#b"
       id="linearGradient71"
       y1="266.07806"
       x2="183.02588"
       y2="278.05573"
       gradientTransform="matrix(0.80079192,0,0,1.2487638,-7.5736666,13.917213)"
       x1="183.02588"
       gradientUnits="userSpaceOnUse" />
    <linearGradient
       inkscape:collect="always"
       xlink:href="#b"
       id="linearGradient73"
       y1="266.07806"
       x2="301.03406"
       y2="278.05573"
       gradientTransform="matrix(0.80079192,0,0,1.2487638,-7.5736666,13.917213)"
       x1="301.03406"
       gradientUnits="userSpaceOnUse" />
    <linearGradient
       inkscape:collect="always"
       xlink:href="#b"
       id="linearGradient75"
       y1="266.07806"
       x2="257.95172"
       y2="278.05573"
       gradientTransform="matrix(0.80079192,0,0,1.2487638,-7.5736666,13.917213)"
       x1="257.95172"
       gradientUnits="userSpaceOnUse" />
  </defs>
  <path
     d="m 186.42634,344.56721 c 0,12.716 -6.38,23.024 -14.25,23.024 -7.87,0 -14.25,-10.308 -14.25,-23.024 0,-12.716 6.3799,-23.024 14.25,-23.024 7.8701,0 14.25,10.308 14.25,23.024 z"
     fill="url(#a)"
     stroke="#000000"
     stroke-linecap="round"
     stroke-linejoin="round"
     stroke-width="2.8687"
     id="path11"
     style="fill:url(#linearGradient67)" />
  <path
     d="m 151.92634,344.56721 c 0,12.716 -6.38,23.024 -14.25,23.024 -7.87,0 -14.25,-10.308 -14.25,-23.024 0,-12.716 6.3799,-23.024 14.25,-23.024 7.8701,0 14.25,10.308 14.25,23.024 z"
     fill="url(#a)"
     stroke="#000000"
     stroke-linecap="round"
     stroke-linejoin="round"
     stroke-width="2.8687"
     id="path13"
     style="fill:url(#linearGradient69)" />
  <path
     d="m 168.92634,344.56721 c 0,12.716 -6.38,23.024 -14.25,23.024 -7.87,0 -14.25,-10.308 -14.25,-23.024 0,-12.716 6.3799,-23.024 14.25,-23.024 7.8701,0 14.25,10.308 14.25,23.024 z"
     fill="url(#a)"
     stroke="#000000"
     stroke-linecap="round"
     stroke-linejoin="round"
     stroke-width="2.8687"
     id="path15"
     style="fill:url(#linearGradient71)" />
  <path
     d="m 263.42634,344.56721 c 0,12.716 -6.3799,23.024 -14.25,23.024 -7.8701,0 -14.25,-10.308 -14.25,-23.024 0,-12.716 6.3799,-23.024 14.25,-23.024 7.8701,0 14.25,10.308 14.25,23.024 z"
     fill="url(#a)"
     stroke="#000000"
     stroke-linecap="round"
     stroke-linejoin="round"
     stroke-width="2.8687"
     id="path17"
     style="fill:url(#linearGradient73)" />
  <path
     d="m 228.92634,344.56721 c 0,12.716 -6.38,23.024 -14.25,23.024 -7.87,0 -14.25,-10.308 -14.25,-23.024 0,-12.716 6.3799,-23.024 14.25,-23.024 7.8701,0 14.25,10.308 14.25,23.024 z"
     fill="url(#a)"
     stroke="#000000"
     stroke-linecap="round"
     stroke-linejoin="round"
     stroke-width="2.8687"
     id="path19"
     style="fill:url(#linearGradient75)" />
  <path
     d="m 245.92634,344.56721 c 0,12.716 -6.38,23.024 -14.25,23.024 -7.87,0 -14.25,-10.308 -14.25,-23.024 0,-12.716 6.3799,-23.024 14.25,-23.024 7.8701,0 14.25,10.308 14.25,23.024 z"
     fill="url(#a)"
     stroke="#000000"
     stroke-linecap="round"
     stroke-linejoin="round"
     stroke-width="2.8687"
     id="path21"
     style="fill:url(#a)" />
  <path
     d="m 137.67634,321.53721 c -5.8064,0 -10.78,5.6303 -13,13.688 18.971,5.0743 39.814,8.0342 61.719,8.4375 -0.29837,-12.285 -6.5429,-22.125 -14.219,-22.125 -3.3009,0 -6.3333,1.8275 -8.75,4.875 -2.4167,-3.0475 -5.4491,-4.875 -8.75,-4.875 -3.1858,0 -6.126,1.7048 -8.5,4.5625 -2.374,-2.8577 -5.3142,-4.5625 -8.5,-4.5625 z m 77,0 c -7.6562,0 -13.891,9.7905 -14.219,22.031 21.881,-0.70435 42.616,-3.9836 61.438,-9.3438 -2.3472,-7.5156 -7.1571,-12.688 -12.719,-12.688 -3.3009,0 -6.3333,1.8275 -8.75,4.875 -2.4167,-3.0475 -5.4491,-4.875 -8.75,-4.875 -3.1858,0 -6.126,1.7048 -8.5,4.5625 -2.374,-2.8577 -5.3142,-4.5625 -8.5,-4.5625 z"
     fill-opacity="0.31372"
     id="path23" />
  <path
     d="m 357.08634,168.47721 c 0,91.439 -74.126,165.56 -165.56,165.56 -91.43401,0 -165.560007,-74.126 -165.560007,-165.56 0,-91.433997 74.125997,-165.5599972 165.560007,-165.5599972 91.434,0 165.56,74.1260002 165.56,165.5599972 z"
     fill="#784421"
     stroke="#000000"
     stroke-linecap="round"
     stroke-width="5"
     id="path25" />
  <path
     d="m 273.35634,251.26721 c -26.5,-4.9236 -2.2474,21.631 -6.3107,31.233 -16.063,-7.8984 -9.9427,18.25 -17.207,25.514 -13.764,-0.73608 -15.912,13.143 -25.514,17.207 -11.602,-6.4366 -20.156,6.3107 -31.233,6.3107 -11.077,0 -17.631,-12.247 -31.233,-6.3107 -9.6016,-4.0634 -11.75,-17.443 -25.514,-17.207 -7.2639,-7.2639 -6.1432,-34.912 -17.207,-25.514 -4.0634,-9.6016 14.689,-38.156 -6.3107,-31.233 0,-11.076 22.247,-31.631 6.3107,-31.233 4.0634,-9.6016 24.443,-16.75 17.207,-25.514 14.528,-14.528 34.594,-23.517 56.747,-23.517 22.153,0 42.219,8.9896 56.747,23.517 -10.736,5.2639 13.143,15.912 17.207,25.514 -17.937,-0.89842 6.3107,20.156 6.3107,31.233 z"
     fill="#ffffff"
     stroke="#000000"
     stroke-linecap="round"
     stroke-linejoin="round"
     stroke-width="4.4118"
     id="path27" />
  <path
     d="m 337.80634,90.917213 c 1.9806,10.231997 3.0312,20.784997 3.0312,31.593997 0,3.7299 -0.13178,7.4251 -0.375,11.094 -3.6726,-0.18282 -7.5783,0.019 -11.75,0.625 -35.215,7.4987 -20.173,51.664 -29.344,97.875 -30.342,34.329 -74.709,55.969 -124.09,55.969 -30.373,0 -58.832,-8.2072 -83.312007,-22.5 -23.679,-55.443 8.076197,-115.66 -33.656,-126.06 -46.109999,-8.3254 -63.9699991,34.456 -34.156,98.562 16.461,35.394 43.723,52.78 63.781,59.531 28.363007,22.8 64.392007,36.438 103.590007,36.438 45.95,0 87.557,-18.739 117.56,-49 17.454,-8.7175 36.862,-24.595 50.344,-51.156 25.212,-49.671 20.385,-87.078 -5.4688,-97.438 -3.1699,-16.136 -8.666,-31.442 -16.156,-45.530997 z"
     fill-opacity="0.31372"
     fill-rule="evenodd"
     id="path29" />
  <path
     d="m 58.163333,131.45721 c 48.111007,17.3 -14.163,94.143 37.819,161.19 9.608407,12.393 -57.868,2.0908 -81.723,-66.585 -23.1979996,-66.786 -1.1324,-107.54 43.904,-94.607 z"
     fill="#784421"
     fill-rule="evenodd"
     stroke="#000000"
     stroke-width="5"
     id="path31" />
  <path
     d="m 324.60634,131.45721 c -48.111,17.3 14.163,94.143 -37.819,161.19 -9.6084,12.393 57.868,2.0908 81.723,-66.585 23.198,-66.786 1.1323,-107.54 -43.904,-94.607 z"
     fill="#784421"
     fill-rule="evenodd"
     stroke="#000000"
     stroke-width="5"
     id="path33" />
  <path
     d="m 306.92634,122.41721 c 13.389,-4.609 27.221,7.5839 29.865,14.18 -13.512,-3.4523 -19.72,-4.4258 -23.218,-1.3807 1.5067,3.3714 17.408,6.7419 22.337,28.871 -12.429,-8.6166 -22.304,-18.576 -26.272,-14.483 2.8816,5.0339 6.1995,14.497 3.9636,23.881 -7.1415,-9.4244 -14.439,-19.378 -21.142,-19.648"
     fill="#784421"
     fill-rule="evenodd"
     stroke="#000000"
     stroke-linecap="round"
     stroke-linejoin="round"
     stroke-width="5"
     id="path35" />
  <path
     d="m 145.56634,40.681213 c -31.234,0 -56.603007,29.331 -56.603007,65.471997 0,36.141 25.369007,65.472 56.603007,65.472 18.356,0 34.644,-10.141 44.985,-25.829 10.34,15.7 26.664,25.829 45.027,25.829 31.234,0 56.603,-29.331 56.603,-65.472 0,-36.140997 -25.369,-65.471997 -56.603,-65.471997 -18.361,0 -34.687,10.133 -45.027,25.829 -10.341,-15.685 -26.631,-25.829 -44.985,-25.829 z"
     fill="#ffffff"
     stroke="#000000"
     stroke-linecap="round"
     stroke-width="5"
     id="path37" />
  <path
     d="m 192.26634,151.58721 c -9.288,0 -19.384,10.327 -18.98,16.85 0.404,6.523 16.557,33.699 20.191,33.699 3.634,0 17.768,-26.633 17.364,-34.243 -0.404,-7.61 -12.519,-16.85 -18.576,-16.306 z"
     fill-opacity="0.31372"
     fill-rule="evenodd"
     id="path39" />
  <path
     d="m 190.14634,140.97721 c -9.288,0 -19.384,9.3062 -18.98,15.184 0.404,5.8778 16.557,30.368 20.191,30.368 3.634,0 17.768,-24 17.364,-30.857 -0.404,-6.857 -12.519,-15.184 -18.576,-14.694 z"
     fill="url(#c)"
     fill-rule="evenodd"
     stroke="#000000"
     stroke-width="5"
     id="path41"
     style="fill:url(#c)" />
  <path
     d="m 186.97634,110.58221 c 0.004,9.0532 -7.3339,16.394 -16.387,16.394 -9.0531,0 -16.391,-7.3411 -16.387,-16.394 0.004,-9.0529 7.334,-16.393997 16.387,-16.393997 9.053,0 16.391,7.341197 16.387,16.393997 z"
     stroke="#000000"
     stroke-linecap="round"
     stroke-width="3.1693"
     id="path43" />
  <path
     d="m 75.569333,122.41721 c -13.389,-4.609 -27.221,7.5839 -29.865,14.18 13.512,-3.4523 19.72,-4.4258 23.218,-1.3807 -1.5067,3.3714 -17.408,6.7419 -22.337,28.871 12.429,-8.6166 22.304,-18.576 26.272,-14.483 -2.8816,5.0339 -6.1995,14.497 -3.9636,23.881 7.1415,-9.4244 14.439,-19.378 21.142,-19.648"
     fill="#784421"
     fill-rule="evenodd"
     stroke="#000000"
     stroke-linecap="round"
     stroke-linejoin="round"
     stroke-width="5"
     id="path45" />
  <path
     d="m 204.39634,51.700213 c 13.276,-32.16 35.666,-36.513 35.666,-36.513 0,0 -12.453,16.775 -1.174,12.109 17.465,-7.2259 72.997,15.418 72.997,15.418 0,0 -73.574,-17.126 -107.49,8.9862 z"
     fill="#ffffff"
     fill-rule="evenodd"
     stroke="#000000"
     stroke-linejoin="round"
     stroke-width="5"
     id="path47" />
  <path
     d="m 173.95634,48.700213 c -13.276,-32.16 -35.666,-36.513 -35.666,-36.513 0,0 12.453,16.775 1.174,12.109 -17.465,-7.2259 -72.997007,15.418 -72.997007,15.418 0,0 73.574007,-17.126 107.490007,8.9862 z"
     fill="#ffffff"
     fill-rule="evenodd"
     stroke="#000000"
     stroke-linejoin="round"
     stroke-width="5"
     id="path49" />
  <path
     d="m 228.47634,110.58221 c 0.004,9.0532 -7.3339,16.394 -16.387,16.394 -9.0531,0 -16.391,-7.3411 -16.387,-16.394 0.004,-9.0529 7.334,-16.393997 16.387,-16.393997 9.053,0 16.391,7.341197 16.387,16.393997 z"
     stroke="#000000"
     stroke-linecap="round"
     stroke-width="3.1693"
     id="path51" />
  <path
     d="m 168.92634,104.84321 c 0,2.3472 -1.9028,4.25 -4.25,4.25 -2.3472,0 -4.25,-1.9028 -4.25,-4.25 0,-2.3472 1.9028,-4.25 4.25,-4.25 2.3472,0 4.25,1.9028 4.25,4.25 z"
     fill="#ffffff"
     id="path53" />
  <path
     d="m 210.42634,104.84321 c 0,2.3472 -1.9028,4.25 -4.25,4.25 -2.3472,0 -4.25,-1.9028 -4.25,-4.25 0,-2.3472 1.9028,-4.25 4.25,-4.25 2.3472,0 4.25,1.9028 4.25,4.25 z"
     fill="#ffffff"
     id="path55" />
  <path
     d="m 340.36634,129.07721 c -0.4126,-6e-4 -0.83164,0.0205 -1.25,0.0312 16.212,13.065 23.073,43.297 14.781,85.344 -11.023,55.895 -53.577,80.008 -67.719,81.281 4.5921,6.5264 60.971,-8.1258 82.344,-69.656 20.299,-58.438 5.9208,-96.95 -28.156,-97 z"
     fill-opacity="0.31372"
     fill-rule="evenodd"
     id="path57" />
  <path
     d="m 6.4883339,161.25721 c -3.4518,16.506 -1.2985,38.673 7.7811991,64.812 23.855,68.676 91.327007,78.987 81.719,66.594 -4.1089,-5.2998 -7.5204,-10.675 -10.312,-16.062 -18.952,-4.5414 -54.048,-24.376 -69.906,-70.031 -5.8795991,-16.927 -8.8538991,-32.18 -9.2811991,-45.312 z m 71.2809991,6.3438 c -0.88285,8.5361 -1.8562,17.612 -2.2812,27.125 0.99329,-9.7906 2.0794,-18.941 2.2812,-27.125 z"
     fill-opacity="0.31372"
     fill-rule="evenodd"
     id="path59" />
</svg>
