<?xml version="1.0" standalone="no"?>
<!DOCTYPE svg PUBLIC "-//W3C//DTD SVG 20010904//EN"
 "http://www.w3.org/TR/2001/REC-SVG-20010904/DTD/svg10.dtd">
<svg version="1.0" xmlns="http://www.w3.org/2000/svg"
 width="700.000000pt" height="700.000000pt" viewBox="0 0 700.000000 700.000000"
 preserveAspectRatio="xMidYMid meet">
<metadata>
Created by potrace 1.11, written by Peter Selinger 2001-2013
</metadata>
<g transform="translate(0.000000,700.000000) scale(0.100000,-0.100000)"
fill="#000000" stroke="none">
<path d="M4388 5985 c-2 -2 -41 -6 -88 -9 -47 -4 -98 -8 -115 -11 -218 -31
-231 -35 -289 -86 -101 -89 -182 -249 -240 -473 l-23 -89 -17 49 c-40 117
-108 141 -227 82 -83 -41 -212 -169 -257 -255 -37 -70 -70 -160 -78 -213 -3
-19 -9 -53 -13 -75 -3 -22 -6 -86 -5 -142 1 -57 -2 -101 -7 -98 -18 12 -141 6
-192 -9 -69 -20 -120 -73 -142 -149 -41 -140 25 -483 182 -947 14 -41 26 -95
28 -120 l3 -45 -86 0 c-48 -1 -102 -4 -119 -8 -104 -23 -164 -38 -203 -52 -53
-19 -63 -12 -86 58 -13 36 -17 76 -15 132 8 221 2 301 -31 455 -60 281 -194
484 -384 580 -107 54 -139 33 -78 -52 l37 -53 -41 38 c-23 20 -49 37 -57 37
-31 0 45 -135 152 -268 l46 -57 -64 62 c-175 169 -249 229 -249 201 0 -17 108
-176 169 -248 l46 -55 -70 63 c-80 71 -133 101 -145 82 -13 -21 4 -61 79 -185
81 -132 134 -235 146 -280 4 -16 9 -86 11 -155 3 -125 11 -267 19 -337 23
-191 47 -329 71 -395 12 -36 12 -38 -22 -73 -82 -87 -198 -285 -278 -475 -15
-36 -38 -82 -52 -102 -26 -41 -74 -174 -74 -207 0 -11 -32 -85 -71 -163 -98
-198 -126 -268 -134 -329 -4 -29 -9 -61 -11 -73 -4 -20 -18 -129 -29 -221 -2
-22 -7 -58 -9 -80 -3 -22 -8 -71 -12 -110 -3 -38 -8 -81 -9 -95 -7 -53 -18
-238 -19 -306 -1 -65 -4 -74 -29 -100 -24 -24 -28 -35 -24 -66 3 -21 13 -45
22 -54 22 -22 76 -33 98 -20 14 9 20 7 28 -7 23 -39 81 -53 126 -29 13 8 24 5
42 -9 28 -23 69 -25 97 -4 16 11 30 12 54 5 41 -12 78 4 99 41 20 36 7 97 -23
110 l-23 11 42 106 c23 59 56 151 74 204 34 101 47 124 35 63 -6 -32 -4 -36
42 -65 68 -43 191 -101 304 -143 141 -52 190 -65 247 -63 49 1 51 0 50 -24 -1
-15 -13 -32 -28 -42 -59 -37 -52 -125 13 -152 18 -8 37 -12 41 -9 5 3 17 -4
28 -16 11 -12 23 -21 27 -22 4 0 16 -2 26 -4 11 -2 28 0 37 6 12 6 20 5 25 -2
3 -6 20 -17 38 -24 26 -11 36 -11 64 1 31 13 36 12 59 -6 14 -11 34 -20 45
-20 33 0 77 29 84 55 6 23 15 29 36 26 10 -1 38 42 43 67 2 11 7 42 11 69 5
26 9 51 10 56 1 4 2 11 3 16 0 5 32 18 70 30 81 25 119 59 145 131 19 54 34
67 173 163 124 85 153 97 231 98 192 2 354 -79 483 -241 70 -89 129 -192 129
-227 0 -66 82 -108 135 -69 14 10 26 11 43 5 38 -14 59 -11 91 17 17 14 43 27
58 30 32 6 73 30 73 43 0 5 16 12 35 15 40 8 75 47 75 86 0 37 -33 77 -70 85
l-30 7 -1 101 c-1 125 -5 161 -29 260 -27 107 -66 185 -152 299 -225 298 -531
592 -728 700 -33 18 -60 35 -60 38 0 3 23 30 51 60 212 230 444 691 509 1012
10 48 29 108 41 134 49 97 188 195 362 253 45 16 85 28 90 29 4 0 20 3 35 6
15 4 38 9 52 12 14 3 72 7 130 9 165 7 212 -17 484 -241 198 -165 372 -242
515 -231 111 9 170 38 234 116 80 98 172 339 212 556 13 75 45 275 50 318 33
286 42 418 51 732 6 202 5 212 -15 257 -42 88 -158 189 -311 270 -53 28 -135
65 -160 73 -3 1 -12 4 -20 8 -16 6 -125 41 -175 57 -42 12 -211 47 -265 54
-25 3 -54 8 -66 10 -117 23 -566 24 -690 2 -11 -2 -40 -7 -66 -10 l-47 -7 14
35 c41 98 -4 169 -128 204 -45 12 -319 27 -329 17z"/>
<path d="M5105 772 c-38 -7 -84 -34 -90 -51 -3 -10 -21 -25 -40 -34 -52 -25
-124 -95 -149 -147 -48 -94 -20 -195 64 -237 35 -18 58 -22 115 -19 66 3 166
28 192 48 6 5 17 8 25 7 74 -10 139 79 139 189 0 96 -47 179 -123 218 -34 18
-105 31 -133 26z"/>
<path d="M5394 661 c-5 -5 -18 -11 -29 -14 l-20 -5 20 -1 c22 -1 52 15 44 23
-3 3 -10 2 -15 -3z"/>
</g>
</svg>
