<?xml version="1.0" encoding="UTF-8" standalone="no"?>
<svg
   xmlns:dc="http://purl.org/dc/elements/1.1/"
   xmlns:cc="http://creativecommons.org/ns#"
   xmlns:rdf="http://www.w3.org/1999/02/22-rdf-syntax-ns#"
   xmlns:svg="http://www.w3.org/2000/svg"
   xmlns="http://www.w3.org/2000/svg"
   enable-background="new 0 0 500 500"
   version="1.1"
   viewBox="0 0 1880.4802 407.66473"
   xml:space="preserve"
   id="svg70"
   width="1880.4802"
   height="407.66473"><metadata
   id="metadata76"><rdf:RDF><cc:Work
       rdf:about=""><dc:format>image/svg+xml</dc:format><dc:type
         rdf:resource="http://purl.org/dc/dcmitype/StillImage" /><dc:title></dc:title></cc:Work></rdf:RDF></metadata><defs
   id="defs74"><rect
     x="482.35294"
     y="112.94118"
     width="1771.7646"
     height="458.82352"
     id="rect100" /><rect
     x="539.89679"
     y="117.29654"
     width="227.10606"
     height="220.45094"
     id="rect94" /><rect
     x="347.05881"
     y="281.17648"
     width="100"
     height="79.411766"
     id="rect80" /></defs>
<style
   type="text/css"
   id="style2">
	.st0{fill:#B75C29;}
	.st1{fill:#D05A02;}
	.st2{fill:#E8E8E8;}
	.st3{fill:#DD6326;}
	.st4{fill:#732C00;}
	.st5{fill:#4E2C2B;}
	.st6{fill:#241117;}
	.st7{fill:#FAFFFE;}
	.st8{fill:#4A2314;}
	.st9{fill:#BC9635;}
	.st10{fill:#602E04;}
</style>
<g
   aria-label="Wilson Zoo"
   transform="translate(-272.57647,-81.722028)"
   id="text98"
   style="font-style:normal;font-weight:normal;font-size:400px;line-height:1.25;font-family:sans-serif;white-space:pre;shape-inside:url(#rect100);fill:#000000;fill-opacity:1;stroke:none"><path
     d="m 486.25977,217.41175 h 56.83593 l 33.59375,157.22656 h 0.78125 l 30.46875,-157.22656 h 51.5625 l 30.85938,155.46875 h 0.78125 l 32.03125,-155.46875 h 58.39844 l -62.5,260.74218 H 665.55664 L 640.75195,361.55237 q -4.10156,-19.14062 -6.83593,-36.91406 h -0.78125 q -4.88282,30.27344 -7.03125,40.42969 l -24.60938,113.08593 h -52.73437 z"
     style="font-style:normal;font-variant:normal;font-weight:normal;font-stretch:normal;font-size:400px;font-family:'Tw Cen MT Condensed Extra Bold';-inkscape-font-specification:'Tw Cen MT Condensed Extra Bold, ';fill:#ffffff"
     id="path153" /><path
     d="m 807.1582,244.56018 q 0,-12.5 8.78907,-21.28906 8.78906,-8.78906 21.09375,-8.78906 12.5,0 21.28906,8.78906 8.78906,8.78906 8.78906,21.28906 0,12.30469 -8.78906,21.28907 -8.78906,8.78906 -21.28906,8.78906 -12.10938,0 -21.09375,-8.78906 -8.78907,-8.98438 -8.78907,-21.28907 z m 1.5625,53.90625 h 56.83594 v 179.6875 H 808.7207 Z"
     style="font-style:normal;font-variant:normal;font-weight:normal;font-stretch:normal;font-size:400px;font-family:'Tw Cen MT Condensed Extra Bold';-inkscape-font-specification:'Tw Cen MT Condensed Extra Bold, ';fill:#ffffff"
     id="path155" /><path
     d="m 911.8457,202.95862 h 56.83594 V 478.15393 H 911.8457 Z"
     style="font-style:normal;font-variant:normal;font-weight:normal;font-stretch:normal;font-size:400px;font-family:'Tw Cen MT Condensed Extra Bold';-inkscape-font-specification:'Tw Cen MT Condensed Extra Bold, ';fill:#ffffff"
     id="path157" /><path
     d="m 1020.0488,420.14612 q 29.1016,17.1875 41.9922,17.1875 7.0313,0 11.7188,-3.51562 4.6875,-3.71094 4.6875,-8.78907 0,-5.46875 -3.9063,-8.00781 -3.9062,-2.53906 -29.2969,-13.67187 -20.3125,-8.98438 -29.2968,-21.09375 -8.9844,-12.30469 -8.9844,-30.46875 0,-25.97657 17.7734,-42.77344 17.9688,-16.79688 45.7032,-16.79688 26.9531,0 66.0156,21.48438 l -21.875,40.42969 q -25.3906,-15.625 -41.6016,-15.625 -14.0625,0 -14.0625,11.32812 0,5.46875 5.0781,9.57031 5.2735,3.90625 18.9454,8.78907 25.5859,8.98437 37.1093,21.48437 11.7188,12.5 11.7188,31.64063 0,27.34375 -18.3594,44.92187 -18.3594,17.57813 -46.875,17.57813 -30.8594,0 -66.0156,-21.67969 z"
     style="font-style:normal;font-variant:normal;font-weight:normal;font-stretch:normal;font-size:400px;font-family:'Tw Cen MT Condensed Extra Bold';-inkscape-font-specification:'Tw Cen MT Condensed Extra Bold, ';fill:#ffffff"
     id="path159" /><path
     d="m 1234.1113,292.21643 q 38.8672,0 59.1797,25.97657 20.3125,25.78125 20.3125,71.875 0,45.11718 -21.0937,69.92187 -21.0938,24.60938 -58.3985,24.60938 -35.7422,0 -56.8359,-25.19532 -20.8984,-25.19531 -20.8984,-69.33593 0,-46.09375 19.9218,-71.875 20.1172,-25.97657 57.8125,-25.97657 z m 0.3907,141.60157 q 11.1328,0 16.6015,-10.35157 5.6641,-10.35156 5.6641,-35.35156 0,-24.80469 -5.4688,-34.76562 -5.4687,-9.96094 -16.4062,-9.96094 -10.7422,0 -16.4063,9.76562 -5.664,9.57032 -5.664,35.35157 0,45.3125 21.6797,45.3125 z"
     style="font-style:normal;font-variant:normal;font-weight:normal;font-stretch:normal;font-size:400px;font-family:'Tw Cen MT Condensed Extra Bold';-inkscape-font-specification:'Tw Cen MT Condensed Extra Bold, ';fill:#ffffff"
     id="path161" /><path
     d="m 1403.6426,298.46643 v 24.41407 h 0.9765 q 19.9219,-30.27344 48.6329,-30.27344 18.75,0 29.6875,12.5 11.1328,12.5 11.1328,33.78906 v 139.25781 h -56.836 V 367.41175 q 0,-9.17969 -4.2968,-15.03907 -4.2969,-5.85937 -11.1329,-5.85937 -18.164,0 -18.164,22.85156 v 108.78906 h -56.6406 v -179.6875 z"
     style="font-style:normal;font-variant:normal;font-weight:normal;font-stretch:normal;font-size:400px;font-family:'Tw Cen MT Condensed Extra Bold';-inkscape-font-specification:'Tw Cen MT Condensed Extra Bold, ';fill:#ffffff"
     id="path163" /><path
     d="m 1628.6426,217.41175 h 168.3594 l -90.8204,205.07812 h 82.8125 v 55.66406 H 1615.752 l 90.039,-204.88281 h -77.1484 z"
     style="font-style:normal;font-variant:normal;font-weight:normal;font-stretch:normal;font-size:400px;font-family:'Tw Cen MT Condensed Extra Bold';-inkscape-font-specification:'Tw Cen MT Condensed Extra Bold, ';fill:#ffffff"
     id="path165" /><path
     d="m 1893.0957,292.21643 q 38.8672,0 59.1797,25.97657 20.3125,25.78125 20.3125,71.875 0,45.11718 -21.0938,69.92187 -21.0937,24.60938 -58.3984,24.60938 -35.7422,0 -56.8359,-25.19532 -20.8985,-25.19531 -20.8985,-69.33593 0,-46.09375 19.9219,-71.875 20.1172,-25.97657 57.8125,-25.97657 z m 0.3906,141.60157 q 11.1328,0 16.6016,-10.35157 5.6641,-10.35156 5.6641,-35.35156 0,-24.80469 -5.4688,-34.76562 -5.4687,-9.96094 -16.4062,-9.96094 -10.7422,0 -16.4063,9.76562 -5.6641,9.57032 -5.6641,35.35157 0,45.3125 21.6797,45.3125 z"
     style="font-style:normal;font-variant:normal;font-weight:normal;font-stretch:normal;font-size:400px;font-family:'Tw Cen MT Condensed Extra Bold';-inkscape-font-specification:'Tw Cen MT Condensed Extra Bold, ';fill:#ffffff"
     id="path167" /><path
     d="m 2073.5645,292.21643 q 38.8671,0 59.1796,25.97657 20.3125,25.78125 20.3125,71.875 0,45.11718 -21.0937,69.92187 -21.0938,24.60938 -58.3984,24.60938 -35.7422,0 -56.836,-25.19532 -20.8984,-25.19531 -20.8984,-69.33593 0,-46.09375 19.9219,-71.875 20.1171,-25.97657 57.8125,-25.97657 z m 0.3906,141.60157 q 11.1328,0 16.6015,-10.35157 5.6641,-10.35156 5.6641,-35.35156 0,-24.80469 -5.4687,-34.76562 -5.4688,-9.96094 -16.4063,-9.96094 -10.7422,0 -16.4062,9.76562 -5.6641,9.57032 -5.6641,35.35157 0,45.3125 21.6797,45.3125 z"
     style="font-style:normal;font-variant:normal;font-weight:normal;font-stretch:normal;font-size:400px;font-family:'Tw Cen MT Condensed Extra Bold';-inkscape-font-specification:'Tw Cen MT Condensed Extra Bold, ';fill:#ffffff"
     id="path169" /></g><path
   class="st0"
   d="m 143.6,275.68974 c 0,0 -41,-3.5 -30,-40.5 11,-37 -2,-101.5 25,-140 27,-38.5 33.5,-64 113,-76.5 79.5,-12.4999998 132,20 132,37.5 0,17.5 -1.5,125.5 -32,135 -30.5,9.5 -53,-31 -72,-32.5 -19,-1.5 -54,8 -57,29.5 -3,21.5 -31,86.5 -60.5,88.5 -29.5,2 -18.5,-1 -18.5,-1 z"
   id="path4" />
<path
   class="st0"
   d="m 127.1,209.18974 c 0,0 -32.999997,-81.5 -26,-104 7,-22.5 45,-4.5 45,-4.5 z"
   id="path6" />
<path
   class="st0"
   d="m 134.6,128.68974 c 0,0 -25.5,-56.5 8.5,-85 34,-28.5 24.5,32.5 24.5,32.5 l -32.5,55 z"
   id="path8" />
<path
   class="st0"
   d="m 165.1,65.18974 c 0,0 6.5,-58.4999998 31,-61.9999998 24.5,-3.49999991 89,-12.5 44.5,31.4999998 -44.5,44 -74.5,34 -74.5,34 z"
   id="path10" />
<path
   class="st1"
   d="m 24.600003,280.18974 c 0,0 -12,23 -13.5,28.5 -1.4999998,5.5 -9.9999998,71.9 -5.9999998,73.9 4,2 26.4999998,11.6 31.9999998,2.1 5.5,-9.5 22,-62.5 22,-72.5 0,-10 24.5,-19.5 15.5,-25 -9,-5.5 -41.5,-59 -50,-7 z"
   id="path12" />
<path
   class="st1"
   d="m 103.1,294.08974 c 0,0 28.5,-23.9 38,-9.4 9.5,14.5 13,50.5 0,76.5 -13,26 -4,32.5 -14.8,33 -10.8,0.5 -35.199997,-4 -32.199997,-17.5 3,-13.5 1.5,-81.3 8.999997,-82.6 z"
   id="path14" />
<path
   class="st1"
   d="m 155.1,245.68974 c 0,0 18.5,17 33,25 14.5,8 40.7,34.2 55,55.5 12.5,18.6 8.7,50.8 4.2,55.8 -4.5,5 -20.3,2.5 -24.3,-1 -4,-3.5 -13.5,-31.3 -42.7,-32 -9.1,-0.2 -7.3,-0.4 -27.8,13.7 -4.1,2.8 -1.5,9.2 -9.4,13 -28.5,13.7 -91.799997,-16.4 -94.799997,-20 -3,-3.6 -39.6999998,-33 -22.7,-78.5 17,-45.5 28,-65.5 58.5,-72 30.499997,-6.5 40.999997,34.5 70.999997,40.5 z"
   id="path16" />
<path
   class="st2"
   d="m 85.600003,286.68974 c 0,0 -28,10.5 -27,28 1,17.5 -9.5,39.8 -11,44.3 -1.5,4.5 45,23.7 46.5,17.7 1.5,-6 17.999997,-60 12.999997,-72.5 -5,-12.5 -8.499997,-32.5 -21.499997,-17.5 z"
   id="path18" />
<path
   class="st3"
   d="m 102.6,185.68974 c 0,0 12.7,-4 19.1,4 6.4,8 23.9,34.5 24.4,38.5 0.5,4 2.5,21.4 -2,29.5 -4.5,8 4.5,5.5 -1.5,15.5 -6,10 -16.6,13 -17.8,12 -1.2,-1 2.5,4.5 -3.1,4 -5.6,-0.5 -19.1,-10.7 -27.899997,-7.8 -8.7,2.8 -28.7,20.1 -32.7,12.7 -4,-7.4 8.5,-20.4 8.5,-20.4 0,0 -21.5,24.5 -20.5,13 1,-11.5 15.5,-23.1 14,-29 -1.5,-6 -10,-37 -4.5,-43.5 5.5,-6.5 6.5,-22 43.999997,-28.5 z"
   id="path20" />
<path
   class="st3"
   d="m 72.600003,219.68974 c 0,0 17.5,-12 14.5,-21 -3,-9 -8.5,-12.5 -7.2,-24 1.3,-11.5 0.2,-35 -10.3,-54 -10.5,-19 -35,-27.5 -25,-15 10,12.5 20,24 20.2,22.5 0.3,-1.5 -30.3,-34 -24.5,-21.5 5.8,12.5 18.8,25.5 18.8,25.5 0,0 -34,-35 -26,-21.5 8,13.5 21,26.5 21,26.5 0,0 -20.4,-22.5 -22.2,-17 -1.8,5.5 18.2,25.6 17.2,39.6 -1,13.9 3.5,61.4 10.5,63.9 7,2.5 13,-4 13,-4 z"
   id="path22" />
<path
   class="st4"
   d="m 67.100003,226.18974 c 0,0 -16.1,-23.8 -14.5,-30.7 1.5,-6.8 8.5,-31.3 11.5,-25.8 3,5.5 4,32 9,40.5 5,8.5 -6,16 -6,16 z"
   id="path24" />
<path
   class="st3"
   d="m 125.6,201.58974 c 0,0 -12.3,2.1 -8.9,-24.9 3.4,-27 -3.6,-26.5 -6.1,-40.5 -2.5,-14 -0.5,-47 7.5,-31 8,16 7.5,24.5 7.5,24.5 0,0 -10.5,-32.8 -5.5,-27.9 5,4.9 11.5,10.4 11.5,25.4 0,15 -9.9,-26 -4.2,-22.5 5.7,3.5 12.2,32.1 9.7,46.6 -2.5,14.5 2.5,29.4 -2,42.4 -4.5,13 -9.5,7.9 -9.5,7.9 z"
   id="path26" />
<path
   class="st4"
   d="M 222.6,37.68974"
   id="path28" />
<circle
   class="st5"
   cx="6.3000002"
   cy="387.38974"
   r="6.3000002"
   id="circle30" />
<circle
   class="st5"
   cx="16.299999"
   cy="390.38974"
   r="6.3000002"
   id="circle32" />
<circle
   class="st5"
   cx="26.299999"
   cy="391.38974"
   r="6.3000002"
   id="circle34" />
<circle
   class="st5"
   cx="35.299999"
   cy="390.38974"
   r="6.3000002"
   id="circle36" />
<circle
   class="st5"
   cx="95.300003"
   cy="387.38974"
   r="6.3000002"
   id="circle38" />
<circle
   class="st5"
   cx="102.3"
   cy="390.38974"
   r="6.3000002"
   id="circle40" />
<circle
   class="st5"
   cx="111.3"
   cy="392.38974"
   r="6.3000002"
   id="circle42" />
<circle
   class="st5"
   cx="237.30002"
   cy="381.38974"
   r="6.3000002"
   id="circle44" />
<circle
   class="st5"
   cx="228.30002"
   cy="382.38974"
   r="6.3000002"
   id="circle46" />
<circle
   class="st5"
   cx="245.30002"
   cy="377.38974"
   r="6.3000002"
   id="circle48" />
<circle
   class="st5"
   cx="252.30002"
   cy="373.38974"
   r="6.3000002"
   id="circle50" />
<circle
   class="st5"
   cx="121.3"
   cy="393.38974"
   r="6.3000002"
   id="circle52" />
<path
   class="st6"
   d="m 95.400003,239.78974 c 0,0 -1.2,-6.2 -2.4,-7.8 -1.1,-1.3 -8.3,-4.8 -10,-2.5 -1.7,2.3 -3.8,9.2 -2.2,11.6 1.7,2.4 2.2,3.5 3.4,3.4 1.3,-0.1 3.8,-0.8 4.8,-0.4 1.1,0.4 5.6,0.2 6.4,-4.3 z"
   id="path54" />
<path
   class="st6"
   d="m 145.5,228.68974 c 0,0 -2.1,2.3 -1.5,5.8 0.6,3.5 0.6,6.5 1.6,6.8 1,0.3 3.8,-4.3 3.6,-5.6 -0.2,-1.2 0,-5.1 -3.7,-7 z"
   id="path56" />
<path
   class="st7"
   d="m 86.500003,230.18974 c 0,0 -2,-0.8 -3.3,0.8 -1.3,1.6 -2.6,3.7 -1.9,4.2 0.7,0.5 5.2,0.8 5.3,0 0.3,-0.9 2.3,-4.4 -0.1,-5 z"
   id="path58" />
<path
   class="st7"
   d="m 145.1,232.98974 c 0,0 0.7,-3 0.8,-3.3 0.2,-0.3 1.8,0.8 1.7,1.5 -0.2,0.6 -1.2,2.2 -2.5,1.8 z"
   id="path60" />
<path
   class="st8"
   d="m 121.8,266.08974 c 0,0 3.6,4.4 5.3,4.3 1.7,-0.1 3.8,-1.2 5,-1 1.2,0.2 3,0.4 3.5,0.4 0.5,0 4.2,-2 4.1,-1.1 -0.1,0.9 -3.9,7 -5,7.2 -1.1,0.2 -3.6,3 -5.2,3.4 -1.6,0.4 -4.8,-2.7 -5.1,-4.3 -0.3,-1.6 -2.2,-2.6 -2.6,-4.1 -0.4,-1.5 -1.2,-3.7 0,-4.8 z"
   id="path62" />
<path
   class="st9"
   d="m 281.6,403.08974 c -10.3,5.7 -24.1,6.9 -28.5,-1.2 -4.5,-8.1 0.6,-17.7 10.9,-23.3 10.3,-5.7 17.7,-3.9 22.2,4.2 4.4,8.2 5.7,14.7 -4.6,20.3 z"
   id="path64" />
<path
   class="st10"
   d="m 285.7,402.78974 c -6.1,3.4 -9,-4.1 -13.4,-12 -4.2,-7.5 -9.2,-13.5 -3.1,-16.9 6.1,-3.4 16,-0.6 20.1,6.9 4.2,7.5 2.6,18.6 -3.6,22 z"
   id="path66" />
	<path
   class="st10"
   d="m 287,382.08974 c 0,0 0.6,0 1.5,-0.1 0.9,-0.1 2,-0.2 3.2,-0.5 0.3,-0.1 0.6,-0.1 0.8,-0.2 0.3,-0.1 0.5,-0.2 0.7,-0.3 0.2,-0.1 0.5,-0.2 0.7,-0.3 l 0.6,-0.3 c 0.2,-0.1 0.3,-0.2 0.5,-0.3 0.1,-0.1 0.3,-0.2 0.3,-0.3 l 0.3,-0.3 h 0.1 c 0,0 0,0.2 -0.1,0.4 0,0.1 0,0.2 -0.1,0.2 0,0.1 -0.1,0.2 -0.1,0.2 -0.1,0.2 -0.2,0.4 -0.4,0.5 -0.2,0.2 -0.4,0.4 -0.6,0.5 -0.2,0.2 -0.5,0.3 -0.8,0.4 -0.6,0.2 -1.2,0.3 -1.8,0.3 -1.2,0.1 -2.4,0.1 -3.3,0 -1,0.3 -1.5,0.2 -1.5,0.1 z"
   id="path68" />
<text
   xml:space="preserve"
   id="text78"
   style="font-style:normal;font-weight:normal;font-size:40px;line-height:1.25;font-family:sans-serif;white-space:pre;shape-inside:url(#rect80);fill:#000000;fill-opacity:1;stroke:none;"
   transform="translate(-91.399997,-72.31026)" /><text
   xml:space="preserve"
   id="text92"
   style="font-style:normal;font-weight:normal;font-size:40px;line-height:1.25;font-family:sans-serif;white-space:pre;shape-inside:url(#rect94);fill:#000000;fill-opacity:1;stroke:none;"
   transform="translate(-91.399997,-72.31026)" /></svg>
